<svg width="32" height="32" viewBox="0 0 32 32" fill="none" xmlns="http://www.w3.org/2000/svg">
<path d="M24.0001 3.3335H24.4534C25.4615 3.3335 25.9656 3.3335 26.3506 3.52968C26.6893 3.70226 26.9647 3.97762 27.1372 4.31631C27.3334 4.70135 27.3334 5.2054 27.3334 6.2135V23.1202C27.3334 24.1283 27.3334 24.6323 27.1372 25.0173C26.9647 25.356 26.6893 25.6314 26.3506 25.804C25.9656 26.0002 25.4615 26.0002 24.4534 26.0002H7.54674C6.53865 26.0002 6.03461 26.0002 5.64957 25.804C5.31087 25.6314 5.03551 25.356 4.86294 25.0173C4.66675 24.6323 4.66675 24.1283 4.66675 23.1202V6.21349C4.66675 5.2054 4.66675 4.70135 4.86294 4.31631C5.03551 3.97762 5.31087 3.70226 5.64957 3.52968C6.03461 3.3335 6.53865 3.3335 7.54675 3.3335H8.00008" stroke="#222222"/>
<path d="M27.3334 16.6665H23.4416C22.7459 16.6665 22.398 16.6665 22.1361 16.8553C21.8742 17.044 21.7642 17.374 21.5442 18.034L21.1226 19.299C20.9026 19.959 20.7926 20.289 20.5307 20.4777C20.2688 20.6665 19.921 20.6665 19.2252 20.6665H12.7749C12.0792 20.6665 11.7314 20.6665 11.4695 20.4777C11.2076 20.289 11.0976 19.959 10.8776 19.299L10.4559 18.034C10.2359 17.374 10.1259 17.044 9.86403 16.8553C9.60215 16.6665 9.25428 16.6665 8.55856 16.6665H4.66675M21.5556 17.9998H10.4445" stroke="#222222"/>
<path d="M27.3334 10H23.4416C22.7459 10 22.398 10 22.1361 10.1888C21.8742 10.3775 21.7642 10.7075 21.5442 11.3675L21.1226 12.6325C20.9026 13.2925 20.7926 13.6225 20.5307 13.8112C20.2688 14 19.921 14 19.2252 14H12.7749C12.0792 14 11.7314 14 11.4695 13.8112C11.2076 13.6225 11.0976 13.2925 10.8776 12.6325L10.4559 11.3675C10.2359 10.7075 10.1259 10.3775 9.86403 10.1888C9.60215 10 9.25428 10 8.55856 10H4.66675M21.5556 11.3333H10.4445" stroke="#222222"/>
<path d="M24.6666 3.3335H23.4414C22.7457 3.3335 22.3979 3.3335 22.136 3.52225C21.8741 3.71101 21.7641 4.04102 21.5441 4.70104L21.1224 5.96595C20.9024 6.62597 20.7924 6.95598 20.5305 7.14474C20.2686 7.3335 19.9208 7.3335 19.2251 7.3335H12.7748C12.079 7.3335 11.7312 7.3335 11.4693 7.14474C11.2074 6.95598 11.0974 6.62597 10.8774 5.96595L10.4558 4.70104C10.2358 4.04102 10.1258 3.71101 9.86387 3.52225C9.60198 3.3335 9.25412 3.3335 8.5584 3.3335H7.33325M21.5555 4.66683H10.4444" stroke="#222222"/>
</svg>
