<svg width="52" height="58" viewBox="0 0 52 58" fill="none" xmlns="http://www.w3.org/2000/svg">
<path fill-rule="evenodd" clip-rule="evenodd" d="M26 0.151367C25.3426 0.151367 24.7706 0.572947 23.6267 1.41611L14.4808 8.15742L14.4808 8.15743C14.3006 8.29025 14.2105 8.35666 14.1138 8.41251C14.017 8.46836 13.9145 8.51318 13.7093 8.60283L3.29823 13.1528C1.99608 13.7218 1.345 14.0064 1.01628 14.5757C0.687562 15.1451 0.766683 15.8512 0.924925 17.2635L2.19012 28.5547C2.21505 28.7772 2.22751 28.8884 2.22751 29.0001C2.22751 29.1118 2.21505 29.2231 2.19012 29.4455L0.924925 40.7368C0.766683 42.149 0.687562 42.8551 1.01628 43.4245C1.345 43.9938 1.99608 44.2784 3.29823 44.8475L13.7093 49.3974L13.7094 49.3974C13.9145 49.4871 14.017 49.5319 14.1138 49.5877C14.2105 49.6436 14.3006 49.71 14.4808 49.8428L23.6267 56.5841C24.7706 57.4273 25.3426 57.8489 26 57.8489C26.6575 57.8489 27.2294 57.4273 28.3733 56.5841L37.5192 49.8428C37.6994 49.71 37.7896 49.6436 37.8863 49.5877C37.983 49.5319 38.0855 49.4871 38.2906 49.3975L38.2907 49.3974L48.7018 44.8475C50.004 44.2784 50.655 43.9938 50.9838 43.4245C51.3125 42.8551 51.2334 42.149 51.0751 40.7368L49.8099 29.4455C49.785 29.2231 49.7725 29.1118 49.7725 29.0001C49.7725 28.8884 49.785 28.7772 49.8099 28.5547L51.0751 17.2634C51.2334 15.8512 51.3125 15.1451 50.9838 14.5757C50.655 14.0064 50.004 13.7218 48.7018 13.1528L38.2907 8.60283L38.2906 8.6028C38.0856 8.51317 37.983 8.46835 37.8863 8.41251C37.7896 8.35666 37.6994 8.29025 37.5192 8.15742L28.3733 1.41611C27.2294 0.572947 26.6575 0.151367 26 0.151367ZM26 39.6668C31.8911 39.6668 36.6667 34.8911 36.6667 29.0001C36.6667 23.1091 31.8911 18.3334 26 18.3334C20.109 18.3334 15.3334 23.1091 15.3334 29.0001C15.3334 34.8911 20.109 39.6668 26 39.6668Z" fill="#D65A31"/>
</svg>
